<?xml version="1.0" standalone="no"?>
<!DOCTYPE svg PUBLIC "-//W3C//DTD SVG 1.1//EN" "http://www.w3.org/Graphics/SVG/1.1/DTD/svg11.dtd" >
<svg xmlns="http://www.w3.org/2000/svg" xmlns:xlink="http://www.w3.org/1999/xlink" version="1.1">
<metadata>
Created by FontForge 20170731 at Tue Sep 24 18:13:52 2013
 By Aleksey,,,
2013(c). Holitter Studios. All Rights Reserved
</metadata>
<defs>
<font id="DragonForcE" horiz-adv-x="1014" >
  <font-face 
    font-family="`DragonForcE'"
    font-weight="400"
    font-stretch="normal"
    units-per-em="2048"
    panose-1="2 0 5 0 0 0 0 0 0 0"
    ascent="1638"
    descent="-410"
    x-height="1024"
    cap-height="1434"
    bbox="-2596.91 -530 3727.91 1854"
    underline-thickness="150"
    underline-position="-442"
    unicode-range="U+0020-F001"
  />
<missing-glyph horiz-adv-x="1024" 
d="M100 0v1434h824v-1434h-824zM150 50h724v1334h-724v-1334zM611 637v-193h-157v251q0 76 157 76h12q58 0 58 57v275q0 57 -59 57h-236q-58 0 -58 -57v-25h-158v82q0 114 157 114h354q158 0 158 -114v-389q0 -76 -158 -76h-10q-60 0 -60 -58zM447 214l-39 177l61 -23
l184 37l-24 -59l38 -177l-60 24l-184 -37z" />
    <glyph glyph-name=".notdef" horiz-adv-x="1024" 
d="M100 0v1434h824v-1434h-824zM150 50h724v1334h-724v-1334zM611 637v-193h-157v251q0 76 157 76h12q58 0 58 57v275q0 57 -59 57h-236q-58 0 -58 -57v-25h-158v82q0 114 157 114h354q158 0 158 -114v-389q0 -76 -158 -76h-10q-60 0 -60 -58zM447 214l-39 177l61 -23
l184 37l-24 -59l38 -177l-60 24l-184 -37z" />
    <glyph glyph-name=".null" horiz-adv-x="0" 
 />
    <glyph glyph-name="nonmarkingreturn" horiz-adv-x="508" 
 />
    <glyph glyph-name="space" unicode=" " horiz-adv-x="508" 
 />
    <glyph glyph-name="space" unicode="&#xa0;" horiz-adv-x="508" 
 />
    <glyph glyph-name="exclam" unicode="!" horiz-adv-x="408" 
d="M297 1434v-1096h-200v897q0 199 200 199zM89 54l-49 234l77 -31l234 48l-31 -77l49 -234l-77 31l-234 -48z" />
    <glyph glyph-name="quotedbl" unicode="&#x22;" horiz-adv-x="672" 
d="M101 1100v474h162zM411 1100v474h162z" />
    <glyph glyph-name="numbersign" unicode="#" horiz-adv-x="1336" 
d="M596 859l-85 -290h242l86 290h-243zM673 1434h93l-141 -477h242l142 477h92l-141 -477h259l-29 -97h-259l-83 -290h279l-30 -98h-280l-140 -472h-92l139 472h-240l-142 -472h-92l140 472h-273l30 98h271l86 290h-295l29 97h295z" />
    <glyph glyph-name="dollar" unicode="$" horiz-adv-x="1030" 
d="M339 268q-99 -69 -99 -168q0 -100 100 -100h350q100 0 100 100v449q0 50 -100 50h-450q-200 0 -200 100v323v262q0 150 200 150h551q199 0 199 -150v-461l-300 201q100 68 100 160q0 100 -100 100h-350q-100 0 -100 -100v-435v-50h100h451q199 0 199 -100v-330v-269
q0 -200 -199 -200h-551q-200 0 -200 200v475zM615 1601v-1988h-200v1988h200z" />
    <glyph glyph-name="percent" unicode="%" horiz-adv-x="1610" 
d="M297 -29l940 1461h84l-938 -1461h-86zM340 1312v-437q0 -79 90 -79q99 0 99 79v437q0 80 -99 80q-90 0 -90 -80zM368 1474h133q218 0 218 -137v-503q0 -148 -218 -148h-133q-218 0 -218 148v503q0 137 218 137zM1059 596v-437q0 -79 90 -79q99 0 99 79v437q0 80 -99 80
q-90 0 -90 -80zM1087 758h133q218 0 218 -137v-503q0 -148 -218 -148h-133q-218 0 -218 148v503q0 137 218 137z" />
    <glyph glyph-name="ampersand" unicode="&#x26;" horiz-adv-x="1501" 
d="M710 192l-470 397v-515q0 -74 75 -74h320q75 0 75 74v118zM710 644h-26v-23l-100 123h351l100 -100h-125v-402l344 -291h57v76l150 -226h-29l1 -1h-260l-263 222v-22q0 -200 -200 -200h-470q-200 0 -200 200v1284q0 150 200 150h300q199 0 200 -148v-260l-300 201
q119 57 -17 57h-108q-75 0 -75 -74v-401l470 -398v233z" />
    <glyph glyph-name="quotesingle" unicode="'" horiz-adv-x="346" 
d="M101 1100v474h162z" />
    <glyph glyph-name="parenleft" unicode="(" horiz-adv-x="758" 
d="M252 601q2 277 99.5 530t268.5 442h120q-172 -242 -230 -438q-57 -193 -57 -523v-22q0 -330 57 -522q58 -196 230 -438h-120q-171 189 -268.5 441.5t-99.5 529.5z" />
    <glyph glyph-name="parenright" unicode=")" horiz-adv-x="758" 
d="M138 -370h-120q172 242 230 438q57 192 57 522v22q0 330 -57 523q-58 196 -230 438h120q171 -189 268.5 -442t99.5 -530q-2 -277 -99.5 -529.5t-268.5 -441.5z" />
    <glyph glyph-name="asterisk" unicode="*" horiz-adv-x="1024" 
d="M498 1294q-4 71 -37 130q-37 66 -37 84q0 32 23.5 51.5t62.5 19.5q37 0 61.5 -18t24.5 -47q0 -21 -36 -89q-33 -61 -37 -130q66 25 113 75q51 55 69 61q11 3 21 3q18 0 35 -10q26 -17 38 -53q6 -19 6 -36q0 -15 -4 -28q-10 -30 -38 -38q-6 -2 -19 -2q-25 0 -76 9
q-28 5 -55 5q-41 0 -81 -11q44 -55 105 -83q68 -32 79 -47q13 -18 13 -38q0 -9 -2 -17q-8 -30 -39 -53q-29 -22 -59 -22q-1 0 -1 1q-31 0 -48 23q-12 17 -22 94q-10 67 -47 125q-38 -58 -46 -124q-9 -75 -20 -90q-19 -25 -49 -27h-5q-28 0 -57 21q-30 21 -39 51q-4 10 -4 20
q0 17 11 32q13 17 83 51q61 29 105 82q-41 11 -80 11q-27 0 -53 -5q-54 -11 -78 -11q-9 0 -14 2q-30 9 -41 38q-6 13 -6 29q0 17 6 36q11 35 36 53q17 12 34 12q9 0 18 -3q20 -6 74 -62q47 -49 112 -75z" />
    <glyph glyph-name="plus" unicode="+" horiz-adv-x="1056" 
d="M479 1107l140 100v-420h300l100 -139l-1 -1h-399v-320l-139 -100l-1 1v419h-300l-100 140h400v320z" />
    <glyph glyph-name="comma" unicode="," horiz-adv-x="557" 
d="M92 -332l48 59q94 56 108 203q1 49 -71 67l-132 199h83l199 132v-83q118 -162 66 -339.5t-301 -237.5z" />
    <glyph glyph-name="hyphen" unicode="-" horiz-adv-x="670" 
d="M166 409l-100 140h438l100 -140h-438z" />
    <glyph glyph-name="hyphen" unicode="&#xad;" horiz-adv-x="670" 
d="M166 409l-100 140h438l100 -140h-438z" />
    <glyph glyph-name="period" unicode="." horiz-adv-x="557" 
d="M177 -3l-132 199h83l199 132v-83l132 -199h-83l-199 -132v83z" />
    <glyph glyph-name="slash" unicode="/" horiz-adv-x="806" 
d="M955 1854l-840 -2287h-200l840 2287h200z" />
    <glyph glyph-name="zero" unicode="0" horiz-adv-x="680" 
d="M240 1140v-796q0 -144 95 -144q105 0 105 144v796q0 144 -105 144q-95 0 -95 -144zM270 1434h140q230 0 230 -250v-914q0 -270 -230 -270h-140q-230 0 -230 270v914q0 250 230 250z" />
    <glyph glyph-name="one" unicode="1" horiz-adv-x="827" 
d="M515 200l272 310v-510h-747l275 200v1084h-120v-76l-150 226h470v-1234z" />
    <glyph glyph-name="two" unicode="2" horiz-adv-x="1064" 
d="M990 200q-20 -200 -219 -200h-402q-199 0 -199 200v269q0 140 199 140h252q99 0 99 50v525q0 100 -99 100h-151q-100 0 -150 -50q-80 -162 20 -230l-300 -201l90 481q40 150 240 150h350q200 0 200 -150v-675q0 -140 -200 -140h-250q-100 0 -100 -50v-119
q0 -100 101 -100h199q100 0 354 238z" />
    <glyph glyph-name="three" unicode="3" horiz-adv-x="805" 
d="M565 1434q200 0 200 -150v-354q0 -76 -100 -106q100 -30 100 -106v-518q0 -200 -200 -200h-520l150 200h300q70 0 70 70v434q0 70 -70 70h-300l-141 100h441q70 0 70 70v270q0 70 -70 70h-305v-76l-150 226h525z" />
    <glyph glyph-name="four" unicode="4" horiz-adv-x="680" 
d="M640 773v-933l-200 160v703q0 70 -70 70h-130q-200 0 -200 100v570l200 -140v-360q0 -70 70 -70h130v570l200 -140v-430l100 -100h-100z" />
    <glyph glyph-name="five" unicode="5" horiz-adv-x="827" 
d="M720 1284h-380q-100 0 -100 -100v-285h351q199 0 199 -100v-599q0 -200 -199 -200h-351q-200 0 -200 200v475l299 -207q-99 -69 -99 -168q0 -100 100 -100h150q100 0 100 100v449q0 50 -100 50h-250q-200 0 -200 100v385q0 150 200 150h632l-152 -226v76z" />
    <glyph glyph-name="six" unicode="6" horiz-adv-x="680" 
d="M240 270q0 -70 70 -70h60q70 0 70 70v434q0 70 -70 70h-60q-70 0 -70 -70v-434zM438 1233q-8 51 -68 51h-60q-70 0 -70 -70v-270q0 -70 70 -70h130q200 0 200 -100v-574q0 -200 -200 -200h-200q-200 0 -200 200v1084q0 150 200 150h200q200 0 200 -150v-389l-300 201
q87 59 98 137z" />
    <glyph glyph-name="seven" unicode="7" horiz-adv-x="961" 
d="M706 1284h-601v-76l-150 226h1006l-453 -1234l370 200v-400h-850l279 200z" />
    <glyph glyph-name="eight" unicode="8" horiz-adv-x="680" 
d="M440 0h-200q-200 0 -200 200v518q0 76 100 106q-100 30 -100 106v354q0 150 200 150h200q200 0 200 -150v-354q0 -76 -100 -106q100 -30 100 -106v-518q0 -200 -200 -200zM370 874q70 0 70 70v270q0 70 -70 70h-60q-70 0 -70 -70v-270q0 -70 70 -70h60zM310 200h60
q70 0 70 70v434q0 70 -70 70h-60q-70 0 -70 -70v-434q0 -70 70 -70z" />
    <glyph glyph-name="nine" unicode="9" horiz-adv-x="680" 
d="M440 1164q0 70 -70 70h-60q-70 0 -70 -70v-434q0 -70 70 -70h60q70 0 70 70v434zM242 201q8 -51 68 -51h60q70 0 70 70v270q0 70 -70 70h-130q-200 0 -200 100v574q0 200 200 200h200q200 0 200 -200v-1084q0 -150 -200 -150h-200q-200 0 -200 150v389l300 -201
q-87 -59 -98 -137z" />
    <glyph glyph-name="colon" unicode=":" horiz-adv-x="557" 
d="M177 -3l-132 199h83l199 132v-83l132 -199h-83l-199 -132v83zM177 697l-132 199h83l199 132v-83l132 -199h-83l-199 -132v83z" />
    <glyph glyph-name="semicolon" unicode=";" horiz-adv-x="557" 
d="M92 -332l48 59q94 56 108 203q1 49 -71 67l-132 199h83l199 132v-83q118 -162 66 -339.5t-301 -237.5zM177 853l-132 199h83l199 132v-83l132 -199h-83l-199 -132v83z" />
    <glyph glyph-name="semicolon" unicode="&#x37e;" horiz-adv-x="557" 
d="M92 -332l48 59q94 56 108 203q1 49 -71 67l-132 199h83l199 132v-83q118 -162 66 -339.5t-301 -237.5zM177 853l-132 199h83l199 132v-83l132 -199h-83l-199 -132v83z" />
    <glyph glyph-name="less" unicode="&#x3c;" 
d="M927 1074l-625 -359l625 -355v-167l-840 481v83l840 484v-167z" />
    <glyph glyph-name="equal" unicode="=" 
d="M37 631h840l100 -140h-840zM37 943h840l100 -140h-840z" />
    <glyph glyph-name="greater" unicode="&#x3e;" 
d="M87 1241l840 -484v-83l-840 -481v167l625 355l-625 359v167z" />
    <glyph glyph-name="question" unicode="?" horiz-adv-x="839" 
d="M510 593v-256h-200v332q0 100 200 100h14q75 0 75 76v363q0 76 -75 76h-209q-75 0 -75 -76v-33h-200v109q0 150 200 150h359q200 0 200 -150v-515q0 -100 -200 -100h-14q-75 0 -75 -76zM301 34l-48 234l77 -31l234 48l-31 -77l48 -234l-77 31l-234 -48z" />
    <glyph glyph-name="at" unicode="@" horiz-adv-x="2019" 
d="M970 404v-154q0 -50 50 -50h50v254h-50q-50 0 -50 -50zM1434 93q112 21 194 177.5t82 382.5q-20 335 -232 540q-197 188 -480 188q-205 0 -392.5 -137.5t-269.5 -355.5q-67 -178 -67 -361q0 -313 129.5 -511.5t305 -290.5t318.5 -92q274 0 575 208v-75
q-263 -184 -571 -184q-240 0 -461 122.5t-343 342t-122 461.5t124 464.5t345.5 342t456.5 119.5q362 0 609 -230t247 -566q0 -270 -176 -439q-175 -168 -336 -199h-500q-100 0 -100 99v405q0 100 100 100h200v248q0 22 -30 22h-35q-35 0 -35 -42q0 -33 42 -51l-242 -177v320
q0 100 100 100h300q100 0 100 -100v-320l100 -150h-100v-254q52 -128 164 -107z" />
    <glyph glyph-name="A" unicode="A" horiz-adv-x="741" 
d="M101 709v575q0 150 200 150h200q200 0 200 -150v-1444l-200 -160v929h-200v-769l-200 -160v929l-101 100h101zM501 709v525q0 50 -50 50h-100q-50 0 -50 -50v-525h200z" />
    <glyph glyph-name="B" unicode="B" horiz-adv-x="895" 
d="M455 1284v-540h130q70 0 70 70v400q0 70 -70 70h-130zM455 644v-644h130q70 0 70 70v504q0 70 -70 70h-130zM105 1284v-76l-150 226h700q200 0 200 -150v-484q0 -76 -100 -106q100 -30 100 -106v-588q0 -200 -200 -200h-700l300 200v1284h-150z" />
    <glyph glyph-name="C" unicode="C" horiz-adv-x="915" 
d="M240 -200v0q-200 0 -200 200v1284q0 150 200 150h401q199 0 199 -150v-385l-200 -200v485q0 100 -100 100h-200q-100 0 -100 -100v-1084q0 -100 100 -100h300v264l355 -464h-755z" />
    <glyph glyph-name="D" unicode="D" horiz-adv-x="895" 
d="M255 0v1284h-150v-76l-150 226h700q200 0 200 -150v-1284q0 -200 -200 -200h-700zM455 1284v-1284h125q75 0 75 76v1132q0 76 -75 76h-125z" />
    <glyph glyph-name="E" unicode="E" horiz-adv-x="861" 
d="M530 1284h-190q-100 0 -100 -76v-458h270v-100h-270v-574q0 -76 100 -76h180v550l421 -750h-701q-200 0 -200 200v1284q0 150 200 150h701l-152 -226v75h-7l-252 -533v534z" />
    <glyph glyph-name="F" unicode="F" horiz-adv-x="477" 
d="M260 924v-1254l-200 170v1104l-112 80h112v173q-114 -3 -211 -10q-447 -35 -774 -165q336 270 719 305q115 10 266 17v190l200 -140v-43q298 7 704 3l163 -189q-504 34 -867 35v-176h201v-100h-201z" />
    <glyph glyph-name="G" unicode="G" horiz-adv-x="946" 
d="M640 -200h-400q-200 0 -200 200v1284q0 150 200 150h401q199 0 199 -150v-275l-200 -200v375q0 110 -100 100h-200q-100 0 -100 -100v-1084q0 -100 100 -100h200q100 0 100 100v297h-122l2 -209l-124 309h444l106 -100h-106v-661l-200 -170v234z" />
    <glyph glyph-name="H" unicode="H" horiz-adv-x="1039" 
d="M435 1434v-690h300v540l200 150v-690l104 -100h-104v-805l-200 -170v975h-300v-805l-200 -170v975l-101 100h101v540h-130v-76l-150 226h480z" />
    <glyph glyph-name="I" unicode="I" horiz-adv-x="680" 
d="M-45 -200l280 200v1284h-130v-76l-150 226h767l-287 -150v-1284h114v100l176 -300h-770z" />
    <glyph glyph-name="J" unicode="J" horiz-adv-x="1011" 
d="M735 926l-2 358h-93v-1282q0 -202 -200 -202h-200q-200 0 -200 205v504l200 -210v-249q0 -50 50 -50h100q50 0 50 50v1234h-170v-76l-150 226h936l-152 -226v75h-7z" />
    <glyph glyph-name="K" unicode="K" horiz-adv-x="1006" 
d="M155 1284h-50v-76l-150 226h200v1h200v-665l500 664h196l-152 -226v75h-7v1l-389 -517h2l546 -1097l-284 170l-383 769l-28 -38l-1 -901l-200 170v1444z" />
    <glyph glyph-name="L" unicode="L" horiz-adv-x="1040" 
d="M-45 -200l280 200v1284h-130v-76l-150 226h767l-287 -150v-1284h414v100l236 -300h-1130z" />
    <glyph glyph-name="M" unicode="M" horiz-adv-x="1772" 
d="M1817 1434l-152 -226v75h-5v-1613l-200 170v1209l-537 -1033v1l-1 -1l-537 1033v-1379l-200 170v1444h-80v-76l-150 226h454l513 -985l513 985h382z" />
    <glyph glyph-name="N" unicode="N" horiz-adv-x="1232" 
d="M386 1434l607 -1164v1164l200 -170v-1698l-200 274v1l-1 -1l-606 1162v-1332l-200 170v1444h-80v-76l-150 226h430z" />
    <glyph glyph-name="O" unicode="O" horiz-adv-x="800" 
d="M250 1210v-1136q0 -74 75 -74h150q75 0 75 74v1136q0 74 -75 74h-150q-75 0 -75 -74zM250 1434h300q200 0 200 -150v-1284q0 -200 -200 -200h-300q-200 0 -200 200v1284q0 150 200 150z" />
    <glyph glyph-name="P" unicode="P" horiz-adv-x="895" 
d="M455 1284v-540h130q70 0 70 70v400q0 70 -70 70h-130zM655 644h-200v-974l-200 170v1444h-150v-76l-150 226h700q200 0 200 -150v-540q0 -100 -200 -100z" />
    <glyph glyph-name="Q" unicode="Q" horiz-adv-x="800" 
d="M665 -176q-46 -24 -115 -24h-300q-200 0 -200 200v1284q0 150 200 150h300q200 0 200 -150v-1284q0 -60 -18 -101l194 -174h-150zM467 0l-140 125h151l71 -64q1 6 1 13v1136q0 74 -75 74h-150q-75 0 -75 -74v-1136q0 -74 75 -74h142z" />
    <glyph glyph-name="R" unicode="R" horiz-adv-x="1001" 
d="M455 1284v-540h130q70 0 70 70v400q0 70 -70 70h-130zM655 -200v754q0 90 -90 90h-110v-974l-200 170v1444h-150v-76l-150 226h700q200 0 200 -150v-540q0 -60 -99 -98q99 -22 99 -108v-588h41v76l150 -226h-391z" />
    <glyph glyph-name="S" unicode="S" horiz-adv-x="930" 
d="M339 268q-99 -69 -99 -168q0 -100 100 -100h250q100 0 100 100v449q0 50 -100 50h-350q-200 0 -200 100v323v262q0 150 200 150h451q199 0 199 -150v-461l-300 201q100 68 100 160q0 100 -100 100h-250q-100 0 -100 -100v-435q0 -50 100 -50h351q199 0 199 -100v-330
v-269q0 -200 -199 -200h-451q-200 0 -200 200v475z" />
    <glyph glyph-name="T" unicode="T" horiz-adv-x="417" 
d="M105 1344v190l200 -140v-43q298 7 704 3l163 -189q-504 34 -867 35v-1530l-200 170v1357q-114 -3 -211 -10q-447 -35 -774 -165q336 270 719 305q115 10 266 17z" />
    <glyph glyph-name="U" unicode="U" horiz-adv-x="885" 
d="M145 1434v1h200v-1359q0 -76 75 -76h150q75 0 75 76v1208l200 150v-1434q0 -200 -199 -200h-302q-199 0 -199 200v1284h-40v-76l-150 226h190z" />
    <glyph glyph-name="V" unicode="V" horiz-adv-x="1530" 
d="M311 1434l509 -1345l448 1199l262 146l-710 -1848l-651 1698h-64v-76l-150 226h356z" />
    <glyph glyph-name="W" unicode="W" horiz-adv-x="2187" 
d="M2232 1434l-152 -226v75h-8l-182 -1483h-225l-513 985l-513 -985h-224l-182 1484h-128v-76l-150 226h460l200 -1249l537 1033l1 -1v1l537 -1033l200 1249h342z" />
    <glyph glyph-name="X" unicode="X" horiz-adv-x="1186" 
d="M176 1284h-71v-76l-150 226h345l323 -612l312 612h282l-152 -226v75h-7v4l-339 -647l512 -971l-322 171l-300 591l-399 -761l-89 170l395 774z" />
    <glyph glyph-name="Y" unicode="Y" horiz-adv-x="1172" 
d="M519 637l-340 647h-74v-76l-150 226h345l319 -604l316 604h282l-152 -226v75h-7v4l-339 -650v-968l-200 170v798z" />
    <glyph glyph-name="Z" unicode="Z" horiz-adv-x="1172" 
d="M105 1284v-76l-150 226h1190l-832 -1434h483v550l421 -750l-1217 -1l868 1485h-763z" />
    <glyph glyph-name="bracketleft" unicode="[" horiz-adv-x="758" 
d="M577 1799l-150 -226v76h-132v-1885h7v75l152 -226h-359v2186h482z" />
    <glyph glyph-name="backslash" unicode="\" horiz-adv-x="744" 
d="M55 1854l840 -2287h-200l-840 2287h200z" />
    <glyph glyph-name="bracketright" unicode="]" horiz-adv-x="758" 
d="M95 -387l150 226v-76h132v1885h-7v-75l-152 226h359v-2186h-482z" />
    <glyph glyph-name="asciicircum" unicode="^" 
d="M605 1129l354 -677l-283 160l-170 326l-171 -326l-284 -160l354 677h200z" />
    <glyph glyph-name="underscore" unicode="_" horiz-adv-x="1024" 
d="M0 -100h1024v-60h-1024v60z" />
    <glyph glyph-name="grave" unicode="`" horiz-adv-x="1024" 
d="M673 1079h-69l-330 202q-31 20 -46.5 40t-15.5 42q0 31 20.5 51t53.5 20q20 0 40.5 -12t55.5 -47z" />
    <glyph glyph-name="a" unicode="a" horiz-adv-x="595" 
d="M340 604v135v113q0 22 -30 22h-35q-35 0 -35 -42q0 -33 42 -51l-242 -177v120v100v100q0 100 100 100h300q100 0 100 -100v-320l100 -150h-100v-254l100 -200h-500q-100 0 -100 99v405q0 100 100 100h200zM240 404v-154q0 -50 50 -50h50v50v154v50h-50q-50 0 -50 -50z
" />
    <glyph glyph-name="b" unicode="b" horiz-adv-x="595" 
d="M-45 0l100 200v674l-100 150h100v410l200 140v-550h100q200 0 200 -150v-674q0 -200 -200 -200h-400zM255 200h55q45 0 45 45v584q0 45 -45 45h-55v-674z" />
    <glyph glyph-name="c" unicode="c" horiz-adv-x="633" 
d="M240 0q-200 0 -200 200v674q0 150 200 150h100q200 0 200 -150v-273h-200v248q0 25 -25 25h-50q-25 0 -25 -25v-624q0 -25 25 -25h328v-360l-151 160h-202z" />
    <glyph glyph-name="d" unicode="d" horiz-adv-x="595" 
d="M240 0q-200 0 -200 200v674q0 150 200 150h100v410l200 140v-550h100l-100 -150v-674l100 -200h-400zM340 874h-55q-45 0 -45 -45v-584q0 -45 45 -45h55v674z" />
    <glyph glyph-name="e" unicode="e" horiz-adv-x="647" 
d="M279 602h50q25 0 25 26v221q0 25 -25 25h-50q-25 0 -25 -25v-221q0 -26 25 -26zM254 502v-277q0 -25 25 -25h328v-360l-151 160h-202q-200 0 -200 200v302l-99 100h99v272q0 150 200 150h100q200 0 200 -150v-272q0 -100 -200 -100h-100z" />
    <glyph glyph-name="f" unicode="f" horiz-adv-x="619" 
d="M356 -160l-200 -170v1254h-201l100 100h101v260q0 150 200 150h353l-170 -150h-83q-100 0 -100 -100v-160h300l-100 -100h-200v-1084z" />
    <glyph glyph-name="g" unicode="g" horiz-adv-x="578" 
d="M337 0h-100q-200 0 -200 200v674q0 150 200 150h401l-50 -75l-51 -75v-337v-337l49 -100l49 -100h-49h-49v-137q0 -200 -200 -200h-180l-160 200h240q100 0 100 78v59zM262 200h50q25 0 25 25v624q0 25 -25 25h-50q-25 0 -25 -25v-624q0 -25 25 -25z" />
    <glyph glyph-name="h" unicode="h" horiz-adv-x="595" 
d="M355 829q0 45 -45 45h-55v-714l-200 -160v874l-100 150h100v410l200 140v-550h100q200 0 200 -150v-714l-200 -160v829z" />
    <glyph glyph-name="i" unicode="i" horiz-adv-x="280" 
d="M240 1064v-904l-200 -160v914zM240 1278v-131l-200 -154v131z" />
    <glyph glyph-name="j" unicode="j" horiz-adv-x="580" 
d="M340 914l200 160v-1241q0 -201 -200 -201h-100q-200 0 -200 198v370l200 -160v-163q0 -45 45 -45h10q45 0 45 45v1037zM540 1288v-131l-200 -164v131z" />
    <glyph glyph-name="k" unicode="k" horiz-adv-x="976" 
d="M240 160v-160l-200 -160v1575l200 160v-1182l608 820l42 -189l-378 -502l337 -525l-104 -161l-353 526z" />
    <glyph glyph-name="l" unicode="l" horiz-adv-x="425" 
d="M40 0v1434l200 140v-1424h80v76l150 -226h-430z" />
    <glyph glyph-name="m" unicode="m" horiz-adv-x="895" 
d="M355 874h-100v-714l-200 -160v874l-100 150h700q200 0 200 -150v-714l-200 -160v874h-100v-714l-200 -160v874z" />
    <glyph glyph-name="n" unicode="n" horiz-adv-x="595" 
d="M55 874l-100 150h400q200 0 200 -150v-714l-200 -160v874h-100v-714l-200 -160v874z" />
    <glyph glyph-name="o" unicode="o" horiz-adv-x="580" 
d="M265 200h50q25 0 25 25v624q0 25 -25 25h-50q-25 0 -25 -25v-624q0 -25 25 -25zM40 200v674q0 150 200 150h100q200 0 200 -150v-674q0 -200 -200 -200h-100q-200 0 -200 200z" />
    <glyph glyph-name="p" unicode="p" horiz-adv-x="595" 
d="M355 1024q200 0 200 -150v-614q0 -150 -200 -150h-100v-400l-200 -140v540h-100l100 150v614l-100 150h400zM255 260h55q45 0 45 46v524q0 44 -45 44h-55v-614z" />
    <glyph glyph-name="q" unicode="q" horiz-adv-x="595" 
d="M640 1024l-100 -150v-614l100 -150h-100v-400l-200 -140v540h-100q-200 0 -200 150v614q0 150 200 150h400zM340 874h-55q-45 0 -45 -44v-524q0 -46 45 -46h55v614z" />
    <glyph glyph-name="r" unicode="r" horiz-adv-x="598" 
d="M258 849v-849l-200 -160v1034l-103 150h403q200 0 200 -149v-224l-200 -160v358q0 25 -25 25h-50q-25 0 -25 -25z" />
    <glyph glyph-name="s" unicode="s" horiz-adv-x="830" 
d="M415 200q100 0 100 100v149q0 50 -100 50h-100q-200 0 -200 103v272q0 150 200 150h560l-160 -149l-300 -1q-100 0 -100 -100v-126q0 -46 90 -46h111q199 0 199 -103v-230v-69q0 -200 -199 -200h-561l160 200h300z" />
    <glyph glyph-name="t" unicode="t" horiz-adv-x="550" 
d="M180 1334v100l200 140v-240h370l-100 -150h-270v-1184l-200 -160v1344h-380l100 150h280z" />
    <glyph glyph-name="u" unicode="u" horiz-adv-x="580" 
d="M340 864l200 160v-1184l-200 160h-100q-200 0 -200 200v664l200 160v-799q0 -25 25 -25h50q25 0 25 25v639z" />
    <glyph glyph-name="v" unicode="v" horiz-adv-x="982" 
d="M305 1184l190 -780l165 780l172 -160l-337 -1183l-345 1183z" />
    <glyph glyph-name="w" unicode="w" horiz-adv-x="895" 
d="M355 1024l200 -160v-714h100v874l200 -160v-714q0 -150 -200 -150h-700l100 150v874l200 -160v-714h100v874z" />
    <glyph glyph-name="x" unicode="x" horiz-adv-x="823" 
d="M508 516l275 -516h-204l-170 326l-171 -326h-198l268 517l-267 512l120 156l247 -477l245 477l126 -161z" />
    <glyph glyph-name="y" unicode="y" horiz-adv-x="895" 
d="M305 516l-274 508l130 160l244 -477l242 478l128 -161l-540 -1024h-280l152 226v-75h7z" />
    <glyph glyph-name="z" unicode="z" horiz-adv-x="908" 
d="M5 0l563 874h-454l-159 150h948l-525 -824h575l-160 -200h-788z" />
    <glyph glyph-name="braceleft" unicode="{" 
d="M700 1574v-100h-195q-100 0 -100 -100v-636q-2 -57 -91 -70q89 -16 91 -70v-697q0 -100 100 -100h192v-100h-292q-200 0 -200 100v717q0 100 -100 100h-105v100h106q99 0 99 100v656q0 100 200 100h295z" />
    <glyph glyph-name="bar" unicode="|" 
d="M605 1571v-1988h-200v1988h200z" />
    <glyph glyph-name="braceright" unicode="}" 
d="M436 1574q199 0 199 -100v-656q0 -100 100 -100h115v-100h-114q-101 0 -101 -100v-717q0 -100 -200 -100h-292v100h192q100 0 100 100v697q2 54 91 70q-89 13 -91 70v636q0 100 -99 100h-196v100h296z" />
    <glyph glyph-name="asciitilde" unicode="~" 
d="M923 878v-156q-63 -72 -122 -97.5t-116 -25.5q-60 0 -177.5 48.5t-176.5 48.5q-51 0 -107.5 -28t-129.5 -112v156q64 73 123 99t114 26q64 0 181.5 -49.5t172.5 -49.5q52 0 108.5 28t129.5 112z" />
    <glyph glyph-name="exclamdown" unicode="&#xa1;" horiz-adv-x="672" 
d="M240 -273v1096h200v-897q0 -199 -200 -199zM448 1107l49 -234l-77 31l-234 -48l31 77l-49 234l77 -31l234 48z" />
    <glyph glyph-name="cent" unicode="&#xa2;" horiz-adv-x="680" 
d="M23 1024v214h84v-214h11q200 0 200 -150v-273h-200v248q0 25 -25 25h-50q-25 0 -25 -25v-624q0 -25 25 -25h328v-360l-151 160h-112v-223h-86v223h-4q-200 0 -200 200v674q0 150 200 150h5z" />
    <glyph glyph-name="brokenbar" unicode="&#xa6;" 
d="M427 371h160v-789h-160v789zM427 1578h160v-789h-160v789z" />
    <glyph glyph-name="section" unicode="&#xa7;" 
d="M974 850q54 -31 54 -96v-361q0 -226 -175 -240v-254q0 -241 -199 -241h-661l160 241h400q100 0 100 121v132h-485l80 120q-95 27 -95 113v328q0 169 175 180v314q0 181 200 181h660l-160 -180l-400 -1q-100 0 -100 -121v-192h485zM353 393h375q100 0 100 121v180
q0 11 -3 20l-372 -1q-100 0 -100 -121v-199z" />
    <glyph glyph-name="dieresis" unicode="&#xa8;" horiz-adv-x="1024" 
d="M223 1289l71 72q13 12 25 12q11 0 27 -14l69 -73q10 -14 10 -25q0 -13 -12 -27l-69 -75q-17 -17 -25 -17q-14 0 -25 12l-76 86q-9 12 -9 23q0 13 14 26zM588 1289l71 72q13 12 25 12q11 0 27 -13l69 -74q10 -14 10 -25q0 -13 -12 -26l-69 -76q-17 -17 -25 -17
q-14 0 -25 12l-76 87q-9 11 -9 22q0 13 14 26z" />
    <glyph glyph-name="copyright" unicode="&#xa9;" horiz-adv-x="1674" 
d="M840 1456q145 0 280 -56.5t239 -160.5q102 -101 158.5 -238t56.5 -283q0 -147 -56.5 -282t-162.5 -240q-105 -105 -239 -159.5t-283 -54.5q-146 0 -278 55.5t-238 160.5q-106 104 -161.5 237.5t-55.5 282.5q0 148 55.5 283t159.5 238q102 104 238.5 160.5t286.5 56.5z
M357 1197q-95 -96 -146 -219.5t-51 -259.5q0 -137 51 -259t148 -219q98 -96 219 -147t256 -51q137 0 259.5 50.5t219.5 145.5q97 98 149 221.5t52 258.5q0 134 -52 259.5t-145 219.5q-96 96 -220 147.5t-258 51.5q-137 0 -262 -51.5t-220 -147.5zM644 245v0q-162 0 -162 122
v782q0 91 162 91h324q162 0 162 -91v-235l-162 -122v296q0 61 -81 61h-162q-81 0 -81 -61v-660q0 -61 81 -61h243v161l287 -283h-611z" />
    <glyph glyph-name="ordfeminine" unicode="&#xaa;" horiz-adv-x="507" 
d="M296.391 1182.38v80.9971v67.7979q0 13.1992 -19.7988 13.1992h-23.0996q-23.0986 0 -23.0986 -25.1992q0 -19.7988 27.7188 -30.5986l-159.714 -106.196v71.998v59.9971v59.9971q0 59.998 65.998 59.998h197.992q65.9971 0 65.9971 -59.998v-191.992l65.9971 -89.9961
h-65.9971v-152.394l65.9971 -119.995h-329.986q-65.998 0 -65.998 59.3975v242.99q0 59.9971 65.998 59.9971h131.994zM230.394 1062.39v-92.3965q0 -29.999 32.999 -29.999h32.998v29.999v92.3965v29.998h-32.998q-32.999 0 -32.999 -29.998zM40 760h512v-60h-512v60z" />
    <glyph glyph-name="guillemotleft" unicode="&#xab;" horiz-adv-x="944" 
d="M174 479l342 303h14v-37l-205 -266l205 -266v-37h-14zM487 479l342 303h14v-37l-205 -266l205 -266v-37h-14z" />
    <glyph glyph-name="logicalnot" unicode="&#xac;" 
d="M87 767h840v-491l-1 -1h-98v392h-741v100z" />
    <glyph glyph-name="registered" unicode="&#xae;" horiz-adv-x="1674" 
d="M840 1456q145 0 280 -56.5t239 -160.5q102 -101 158.5 -238t56.5 -283q0 -147 -56.5 -282t-162.5 -240q-105 -105 -239 -159.5t-283 -54.5q-146 0 -278 55.5t-238 160.5q-106 104 -161.5 237.5t-55.5 282.5q0 148 55.5 283t159.5 238q102 104 238.5 160.5t286.5 56.5z
M357 1197q-95 -96 -146 -219.5t-51 -259.5q0 -137 51 -259t148 -219q98 -96 219 -147t256 -51q137 0 259.5 50.5t219.5 145.5q97 98 149 221.5t52 258.5q0 134 -52 259.5t-145 219.5q-96 96 -220 147.5t-258 51.5q-137 0 -262 -51.5t-220 -147.5zM767 1063v-301h112
q60 0 60 39v223q0 39 -60 39h-112zM939 236v420q0 50 -77 50h-95v-543l-173 95v805h-129v-42l-130 126h604q173 0 173 -84v-301q0 -33 -85 -55q85 -12 85 -60v-328h35v43l130 -126h-338z" />
    <glyph glyph-name="macron" unicode="&#xaf;" horiz-adv-x="1179" 
d="M166 1414l-100 140h928l100 -140h-928z" />
    <glyph glyph-name="degree" unicode="&#xb0;" horiz-adv-x="674" 
d="M339 1372q-86 0 -147.5 -61t-61.5 -148t61 -147t148 -60t147 60t60 147t-60.5 148t-146.5 61zM339 1442q115 0 196 -81.5t81 -196.5q0 -114 -82 -196t-197 -82q-117 0 -197 81t-80 197t81.5 197t197.5 81z" />
    <glyph glyph-name="plusminus" unicode="&#xb1;" horiz-adv-x="1056" 
d="M479 1107l140 100v-420h300l100 -139l-1 -1h-399v-320l-139 -100l-1 1v419h-300l-100 140h400v320zM137 0l-100 140h839l1 -1l100 -139h-840z" />
    <glyph glyph-name="acute" unicode="&#xb4;" horiz-adv-x="1024" 
d="M607 1375q35 35 55.5 47t40.5 12q33 0 53.5 -20t20.5 -51q0 -22 -15.5 -42t-46.5 -40l-330 -203h-69z" />
    <glyph glyph-name="paragraph" unicode="&#xb6;" horiz-adv-x="1024" 
d="M929 1435v-70h-127v-1365h-82v1365h-166v-1365h-84v738q-174 8 -275.5 102.5t-101.5 245.5q0 157 107.5 253t285.5 96h443z" />
    <glyph glyph-name="periodcentered" unicode="&#xb7;" horiz-adv-x="508" 
d="M145 740l82 84q15 14 29 14q13 0 31 -16l80 -86q12 -16 12 -29q0 -15 -14 -31l-80 -88q-20 -20 -29 -20q-16 0 -29 14l-88 101q-10 13 -10 26q0 15 16 31z" />
    <glyph glyph-name="periodcentered" unicode="&#x2219;" horiz-adv-x="508" 
d="M145 740l82 84q15 14 29 14q13 0 31 -16l80 -86q12 -16 12 -29q0 -15 -14 -31l-80 -88q-20 -20 -29 -20q-16 0 -29 14l-88 101q-10 13 -10 26q0 15 16 31z" />
    <glyph glyph-name="cedilla" unicode="&#xb8;" horiz-adv-x="1024" 
d="M735 -428h-419l100 100h269q50 0 50 50v11q0 50 -50 50h-129q-100 0 -100 100v117h50h50v-67q0 -50 50 -50h129q100 0 100 -100v-111q0 -100 -100 -100z" />
    <glyph glyph-name="ordmasculine" unicode="&#xba;" horiz-adv-x="592" 
d="M279.893 939.995h32.999q16.499 0 16.499 14.999v374.385q0 15 -16.499 15h-32.999q-16.499 0 -16.499 -15v-374.385q0 -14.999 16.499 -14.999zM131.398 939.995v404.384q0 89.9961 131.995 89.9961h65.9971q131.995 0 131.995 -89.9961v-404.384
q0 -119.995 -131.995 -119.995h-65.9971q-131.995 0 -131.995 119.995zM40 760h512v-60h-512v60z" />
    <glyph glyph-name="guillemotright" unicode="&#xbb;" horiz-adv-x="944" 
d="M115 176h-14v37l205 266l-205 266v37h14l342 -303zM428 176h-14v37l205 266l-205 266v37h14l342 -303z" />
    <glyph glyph-name="questiondown" unicode="&#xbf;" horiz-adv-x="839" 
d="M329 548v256h200v-332q0 -100 -200 -100h-14q-75 0 -75 -76v-363q0 -76 75 -76h209q75 0 75 76v33h200v-109q0 -150 -200 -150h-359q-200 0 -200 150v515q0 100 200 100h14q75 0 75 76zM538 1107l48 -234l-77 31l-234 -48l31 77l-48 234l77 -31l234 48z" />
    <glyph glyph-name="Agrave" unicode="&#xc0;" horiz-adv-x="741" 
d="M101 709v575q0 150 200 150h200q200 0 200 -150v-1444l-200 -160v929h-200v-769l-200 -160v929l-101 100h101zM501 709v525q0 50 -50 50h-100q-50 0 -50 -50v-525h200zM504 1459h-69l-330 202q-31 20 -46.5 40t-15.5 42q0 31 20.5 51t53.5 20q20 0 40.5 -12t55.5 -47z
" />
    <glyph glyph-name="Aacute" unicode="&#xc1;" horiz-adv-x="741" 
d="M101 709v575q0 150 200 150h200q200 0 200 -150v-1444l-200 -160v929h-200v-769l-200 -160v929l-101 100h101zM501 709v525q0 50 -50 50h-100q-50 0 -50 -50v-525h200zM488 1755q35 35 55.5 47t40.5 12q33 0 53.5 -20t20.5 -51q0 -22 -15.5 -42t-46.5 -40l-330 -203h-69z
" />
    <glyph glyph-name="Acircumflex" unicode="&#xc2;" horiz-adv-x="741" 
d="M101 709v575q0 150 200 150h200q200 0 200 -150v-1444l-200 -160v929h-200v-769l-200 -160v929l-101 100h101zM501 709v525q0 50 -50 50h-100q-50 0 -50 -50v-525h200zM110 1459l232 355h118l232 -355h-58l-233 216l-233 -216h-58z" />
    <glyph glyph-name="Atilde" unicode="&#xc3;" horiz-adv-x="741" 
d="M101 709v575q0 150 200 150h200q200 0 200 -150v-1444l-200 -160v929h-200v-769l-200 -160v929l-101 100h101zM501 709v525q0 50 -50 50h-100q-50 0 -50 -50v-525h200zM698 1732q-20 -103 -68.5 -154t-126.5 -51h-4q-50 0 -113 23q-66 24 -114 24q-39 0 -60.5 -20.5
t-33.5 -71.5h-54q19 106 68 158.5t129 52.5q46 -1 113 -24q64 -23 112 -23h4q36 0 58 20t36 66h54z" />
    <glyph glyph-name="Adieresis" unicode="&#xc4;" horiz-adv-x="741" 
d="M101 709v575q0 150 200 150h200q200 0 200 -150v-1444l-200 -160v929h-200v-769l-200 -160v929l-101 100h101zM501 709v525q0 50 -50 50h-100q-50 0 -50 -50v-525h200zM124 1639l71 72q13 12 25 12q11 0 27 -14l69 -73q10 -14 10 -25q0 -13 -12 -27l-69 -75
q-17 -17 -25 -17q-14 0 -25 12l-76 86q-9 12 -9 23q0 13 14 26zM489 1639l71 72q13 12 25 12q11 0 27 -13l69 -74q10 -14 10 -25q0 -13 -12 -26l-69 -76q-17 -17 -25 -17q-14 0 -25 12l-76 87q-9 11 -9 22q0 13 14 26z" />
    <glyph glyph-name="Aring" unicode="&#xc5;" horiz-adv-x="741" 
d="M101 709v575q0 150 200 150h200q200 0 200 -150v-1444l-200 -160v929h-200v-769l-200 -160v929l-101 100h101zM501 709v525q0 50 -50 50h-100q-50 0 -50 -50v-525h200zM309 1637q0 -42 29 -71t71 -29t71 29t29 71q0 40 -29.5 69.5t-70.5 29.5t-70.5 -29.5t-29.5 -69.5z
M233 1637q0 75 51 126t125 51q76 0 127.5 -51.5t51.5 -125.5q0 -75 -51.5 -126.5t-127.5 -51.5q-74 0 -125 51.5t-51 126.5z" />
    <glyph glyph-name="AE" unicode="&#xc6;" horiz-adv-x="1357" 
d="M101 709v575q0 150 200 150h200q200 0 200 -150v-1444l-200 -160v929h-200v-769l-200 -160v929l-101 100h101zM501 709v525q0 50 -50 50h-100q-50 0 -50 -50v-525h200zM991 1284h-190q-100 0 -100 -76v-458h270v-100h-270v-574q0 -76 100 -76h180v550l421 -750h-701
q-200 0 -200 200v1284q0 150 200 150h701l-152 -226v75h-7l-252 -533v534z" />
    <glyph glyph-name="Ccedilla" unicode="&#xc7;" horiz-adv-x="950" 
d="M240 -200v0q-200 0 -200 200v1284q0 150 200 150h401q199 0 199 -150v-385l-200 -200v485q0 100 -100 100h-200q-100 0 -100 -100v-1084q0 -100 100 -100h300v264l355 -464h-755zM629 -442h-419l100 80h269q50 0 50 31q0 30 -50 30h-129q-100 0 -100 80v117h50h50v-67
q0 -50 50 -50h129q100 0 100 -80v-61q0 -80 -100 -80z" />
    <glyph glyph-name="Egrave" unicode="&#xc8;" horiz-adv-x="896" 
d="M530 1284h-190q-100 0 -100 -76v-458h270v-100h-270v-574q0 -76 100 -76h180v550l421 -750h-701q-200 0 -200 200v1284q0 150 200 150h701l-152 -226v75h-7l-252 -533v534zM644 1459h-69l-330 202q-31 20 -46.5 40t-15.5 42q0 31 20.5 51t53.5 20q20 0 40.5 -12t55.5 -47
z" />
    <glyph glyph-name="Eacute" unicode="&#xc9;" horiz-adv-x="896" 
d="M530 1284h-190q-100 0 -100 -76v-458h270v-100h-270v-574q0 -76 100 -76h180v550l421 -750h-701q-200 0 -200 200v1284q0 150 200 150h701l-152 -226v75h-7l-252 -533v534zM628 1755q35 35 55.5 47t40.5 12q33 0 53.5 -20t20.5 -51q0 -22 -15.5 -42t-46.5 -40l-330 -203
h-69z" />
    <glyph glyph-name="Ecircumflex" unicode="&#xca;" horiz-adv-x="896" 
d="M530 1284h-190q-100 0 -100 -76v-458h270v-100h-270v-574q0 -76 100 -76h180v550l421 -750h-701q-200 0 -200 200v1284q0 150 200 150h701l-152 -226v75h-7l-252 -533v534zM200 1459l232 355h118l232 -355h-58l-233 216l-233 -216h-58z" />
    <glyph glyph-name="Edieresis" unicode="&#xcb;" horiz-adv-x="896" 
d="M530 1284h-190q-100 0 -100 -76v-458h270v-100h-270v-574q0 -76 100 -76h180v550l421 -750h-701q-200 0 -200 200v1284q0 150 200 150h701l-152 -226v75h-7l-252 -533v534zM214 1639l71 72q13 12 25 12q11 0 27 -14l69 -73q10 -14 10 -25q0 -13 -12 -27l-69 -75
q-17 -17 -25 -17q-14 0 -25 12l-76 86q-9 12 -9 23q0 13 14 26zM579 1639l71 72q13 12 25 12q11 0 27 -13l69 -74q10 -14 10 -25q0 -13 -12 -26l-69 -76q-17 -17 -25 -17q-14 0 -25 12l-76 87q-9 11 -9 22q0 13 14 26z" />
    <glyph glyph-name="Igrave" unicode="&#xcc;" horiz-adv-x="680" 
d="M-45 -200l280 200v1284h-130v-76l-150 226h767l-287 -150v-1284h114v100l176 -300h-770zM494 1459h-69l-330 202q-31 20 -46.5 40t-15.5 42q0 31 20.5 51t53.5 20q20 0 40.5 -12t55.5 -47z" />
    <glyph glyph-name="Iacute" unicode="&#xcd;" horiz-adv-x="680" 
d="M-45 -200l280 200v1284h-130v-76l-150 226h767l-287 -150v-1284h114v100l176 -300h-770zM477 1755q35 35 55.5 47t40.5 12q33 0 53.5 -20t20.5 -51q0 -22 -15.5 -42t-46.5 -40l-330 -203h-69z" />
    <glyph glyph-name="Icircumflex" unicode="&#xce;" horiz-adv-x="680" 
d="M-45 -200l280 200v1284h-130v-76l-150 226h767l-287 -150v-1284h114v100l176 -300h-770zM49 1459l232 355h118l232 -355h-58l-233 216l-233 -216h-58z" />
    <glyph glyph-name="Idieresis" unicode="&#xcf;" horiz-adv-x="680" 
d="M-45 -200l280 200v1284h-130v-76l-150 226h767l-287 -150v-1284h114v100l176 -300h-770zM64 1639l71 72q13 12 25 12q11 0 27 -14l69 -73q10 -14 10 -25q0 -13 -12 -27l-69 -75q-17 -17 -25 -17q-14 0 -25 12l-76 86q-9 12 -9 23q0 13 14 26zM429 1639l71 72q13 12 25 12
q11 0 27 -13l69 -74q10 -14 10 -25q0 -13 -12 -26l-69 -76q-17 -17 -25 -17q-14 0 -25 12l-76 87q-9 11 -9 22q0 13 14 26z" />
    <glyph glyph-name="Eth" unicode="&#xd0;" horiz-adv-x="895" 
d="M255 0v1284h-150v-76l-150 226h700q200 0 200 -150v-1284q0 -200 -200 -200h-700zM455 1284v-1284h125q75 0 75 76v1132q0 76 -75 76h-125zM-45 647h1024v-60h-1024v60z" />
    <glyph glyph-name="Ntilde" unicode="&#xd1;" horiz-adv-x="1232" 
d="M385 1434l607 -1164v1164l200 -170v-1698l-200 274v1l-1 -1l-606 1162v-1332l-200 170v1444h-80v-76l-150 226h430zM960 1732q-20 -103 -68.5 -154t-126.5 -51h-4q-50 0 -113 23q-66 24 -114 24q-39 0 -60.5 -20.5t-33.5 -71.5h-54q19 106 68 158.5t129 52.5
q46 -1 113 -24q64 -23 112 -23h4q36 0 58 20t36 66h54z" />
    <glyph glyph-name="Ograve" unicode="&#xd2;" horiz-adv-x="800" 
d="M250 1210v-1136q0 -74 75 -74h150q75 0 75 74v1136q0 74 -75 74h-150q-75 0 -75 -74zM250 1434h300q200 0 200 -150v-1284q0 -200 -200 -200h-300q-200 0 -200 200v1284q0 150 200 150zM554 1459h-69l-330 202q-31 20 -46.5 40t-15.5 42q0 31 20.5 51t53.5 20
q20 0 40.5 -12t55.5 -47z" />
    <glyph glyph-name="Oacute" unicode="&#xd3;" horiz-adv-x="800" 
d="M250 1210v-1136q0 -74 75 -74h150q75 0 75 74v1136q0 74 -75 74h-150q-75 0 -75 -74zM250 1434h300q200 0 200 -150v-1284q0 -200 -200 -200h-300q-200 0 -200 200v1284q0 150 200 150zM537 1755q35 35 55.5 47t40.5 12q33 0 53.5 -20t20.5 -51q0 -22 -15.5 -42
t-46.5 -40l-330 -203h-69z" />
    <glyph glyph-name="Ocircumflex" unicode="&#xd4;" horiz-adv-x="800" 
d="M250 1210v-1136q0 -74 75 -74h150q75 0 75 74v1136q0 74 -75 74h-150q-75 0 -75 -74zM250 1434h300q200 0 200 -150v-1284q0 -200 -200 -200h-300q-200 0 -200 200v1284q0 150 200 150zM109 1459l232 355h118l232 -355h-58l-233 216l-233 -216h-58z" />
    <glyph glyph-name="Otilde" unicode="&#xd5;" horiz-adv-x="800" 
d="M250 1210v-1136q0 -74 75 -74h150q75 0 75 74v1136q0 74 -75 74h-150q-75 0 -75 -74zM250 1434h300q200 0 200 -150v-1284q0 -200 -200 -200h-300q-200 0 -200 200v1284q0 150 200 150zM687 1732q-20 -103 -68.5 -154t-126.5 -51h-4q-50 0 -113 23q-66 24 -114 24
q-39 0 -60.5 -20.5t-33.5 -71.5h-54q19 106 68 158.5t129 52.5q46 -1 113 -24q64 -23 112 -23h4q36 0 58 20t36 66h54z" />
    <glyph glyph-name="Odieresis" unicode="&#xd6;" horiz-adv-x="800" 
d="M250 1210v-1136q0 -74 75 -74h150q75 0 75 74v1136q0 74 -75 74h-150q-75 0 -75 -74zM250 1434h300q200 0 200 -150v-1284q0 -200 -200 -200h-300q-200 0 -200 200v1284q0 150 200 150zM124 1639l71 72q13 12 25 12q11 0 27 -14l69 -73q10 -14 10 -25q0 -13 -12 -27
l-69 -75q-17 -17 -25 -17q-14 0 -25 12l-76 86q-9 12 -9 23q0 13 14 26zM489 1639l71 72q13 12 25 12q11 0 27 -13l69 -74q10 -14 10 -25q0 -13 -12 -26l-69 -76q-17 -17 -25 -17q-14 0 -25 12l-76 87q-9 11 -9 22q0 13 14 26z" />
    <glyph glyph-name="multiply" unicode="&#xd7;" 
d="M507 618l-247 -247l-99 99l247 247l-247 248l99 98l247 -247l248 247l98 -99l-247 -247l247 -247l-99 -99z" />
    <glyph glyph-name="Oslash" unicode="&#xd8;" horiz-adv-x="800" 
d="M250 1210v-1136q0 -74 75 -74h150q75 0 75 74v1136q0 74 -75 74h-150q-75 0 -75 -74zM250 1434h300q200 0 200 -150v-1284q0 -200 -200 -200h-300q-200 0 -200 200v1284q0 150 200 150zM920 1854l-840 -2287h-200l840 2287h200z" />
    <glyph glyph-name="Ugrave" unicode="&#xd9;" horiz-adv-x="885" 
d="M145 1434v1h200v-1359q0 -76 75 -76h150q75 0 75 76v1208l200 150v-1434q0 -200 -199 -200h-302q-199 0 -199 200v1284h-40v-76l-150 226h190zM554 1459h-69l-330 202q-31 20 -46.5 40t-15.5 42q0 31 20.5 51t53.5 20q20 0 40.5 -12t55.5 -47z" />
    <glyph glyph-name="Uacute" unicode="&#xda;" horiz-adv-x="885" 
d="M145 1434v1h200v-1359q0 -76 75 -76h150q75 0 75 76v1208l200 150v-1434q0 -200 -199 -200h-302q-199 0 -199 200v1284h-40v-76l-150 226h190zM677 1755q35 35 55.5 47t40.5 12q33 0 53.5 -20t20.5 -51q0 -22 -15.5 -42t-46.5 -40l-330 -203h-69z" />
    <glyph glyph-name="Ucircumflex" unicode="&#xdb;" horiz-adv-x="885" 
d="M145 1434v1h200v-1359q0 -76 75 -76h150q75 0 75 76v1208l200 150v-1434q0 -200 -199 -200h-302q-199 0 -199 200v1284h-40v-76l-150 226h190zM219 1459l232 355h118l232 -355h-58l-233 216l-233 -216h-58z" />
    <glyph glyph-name="Udieresis" unicode="&#xdc;" horiz-adv-x="885" 
d="M145 1434v1h200v-1359q0 -76 75 -76h150q75 0 75 76v1208l200 150v-1434q0 -200 -199 -200h-302q-199 0 -199 200v1284h-40v-76l-150 226h190zM224 1639l71 72q13 12 25 12q11 0 27 -14l69 -73q10 -14 10 -25q0 -13 -12 -27l-69 -75q-17 -17 -25 -17q-14 0 -25 12l-76 86
q-9 12 -9 23q0 13 14 26zM589 1639l71 72q13 12 25 12q11 0 27 -13l69 -74q10 -14 10 -25q0 -13 -12 -26l-69 -76q-17 -17 -25 -17q-14 0 -25 12l-76 87q-9 11 -9 22q0 13 14 26z" />
    <glyph glyph-name="Yacute" unicode="&#xdd;" horiz-adv-x="1257" 
d="M519 637l-340 647h-74v-76l-150 226h345l319 -604l316 604h282l-152 -226v75h-7v4l-339 -650v-968l-200 170v798zM723 1755q35 35 55.5 47t40.5 12q33 0 53.5 -20t20.5 -51q0 -22 -15.5 -42t-46.5 -40l-330 -203h-69z" />
    <glyph glyph-name="Thorn" unicode="&#xde;" horiz-adv-x="895" 
d="M435 1084v-540h130q70 0 70 70v400q0 70 -70 70h-130zM635 444h-200v-974l-200 170v1444h-150v-76l-150 226h700q200 0 200 -150v-540q0 -100 -200 -100zM-45 -160l280 200v1284h-130v-76l-150 226h767l-287 -150v-1284h114v100l176 -300h-770z" />
    <glyph glyph-name="agrave" unicode="&#xe0;" horiz-adv-x="595" 
d="M340 604v135v113q0 22 -30 22h-35q-35 0 -35 -42q0 -33 42 -51l-242 -177v120v100v100q0 100 100 100h300q100 0 100 -100v-320l100 -150h-100v-254l100 -200h-500q-100 0 -100 99v405q0 100 100 100h200zM240 404v-154q0 -50 50 -50h50v50v154v50h-50q-50 0 -50 -50z
M494 1079h-69l-330 202q-31 20 -46.5 40t-15.5 42q0 31 20.5 51t53.5 20q20 0 40.5 -12t55.5 -47z" />
    <glyph glyph-name="aacute" unicode="&#xe1;" horiz-adv-x="595" 
d="M340 604v135v113q0 22 -30 22h-35q-35 0 -35 -42q0 -33 42 -51l-242 -177v120v100v100q0 100 100 100h300q100 0 100 -100v-320l100 -150h-100v-254l100 -200h-500q-100 0 -100 99v405q0 100 100 100h200zM240 404v-154q0 -50 50 -50h50v50v154v50h-50q-50 0 -50 -50z
M477 1375q35 35 55.5 47t40.5 12q33 0 53.5 -20t20.5 -51q0 -22 -15.5 -42t-46.5 -40l-330 -203h-69z" />
    <glyph glyph-name="acircumflex" unicode="&#xe2;" horiz-adv-x="595" 
d="M340 604v135v113q0 22 -30 22h-35q-35 0 -35 -42q0 -33 42 -51l-242 -177v120v100v100q0 100 100 100h300q100 0 100 -100v-320l100 -150h-100v-254l100 -200h-500q-100 0 -100 99v405q0 100 100 100h200zM240 404v-154q0 -50 50 -50h50v50v154v50h-50q-50 0 -50 -50z
M49 1079l232 355h118l232 -355h-58l-233 216l-233 -216h-58z" />
    <glyph glyph-name="atilde" unicode="&#xe3;" horiz-adv-x="595" 
d="M340 604v135v113q0 22 -30 22h-35q-35 0 -35 -42q0 -33 42 -51l-242 -177v120v100v100q0 100 100 100h300q100 0 100 -100v-320l100 -150h-100v-254l100 -200h-500q-100 0 -100 99v405q0 100 100 100h200zM240 404v-154q0 -50 50 -50h50v50v154v50h-50q-50 0 -50 -50z
M627 1382q-20 -103 -68.5 -154t-126.5 -51h-4q-50 0 -113 23q-66 24 -114 24q-39 0 -60.5 -20.5t-33.5 -71.5h-54q19 106 68 158.5t129 52.5q46 -1 113 -24q64 -23 112 -23h4q36 0 58 20t36 66h54z" />
    <glyph glyph-name="adieresis" unicode="&#xe4;" horiz-adv-x="595" 
d="M340 604v135v113q0 22 -30 22h-35q-35 0 -35 -42q0 -33 42 -51l-242 -177v120v100v100q0 100 100 100h300q100 0 100 -100v-320l100 -150h-100v-254l100 -200h-500q-100 0 -100 99v405q0 100 100 100h200zM240 404v-154q0 -50 50 -50h50v50v154v50h-50q-50 0 -50 -50z
M24 1289l71 72q13 12 25 12q11 0 27 -14l69 -73q10 -14 10 -25q0 -13 -12 -27l-69 -75q-17 -17 -25 -17q-14 0 -25 12l-76 86q-9 12 -9 23q0 13 14 26zM389 1289l71 72q13 12 25 12q11 0 27 -13l69 -74q10 -14 10 -25q0 -13 -12 -26l-69 -76q-17 -17 -25 -17q-14 0 -25 12
l-76 87q-9 11 -9 22q0 13 14 26z" />
    <glyph glyph-name="aring" unicode="&#xe5;" horiz-adv-x="595" 
d="M340 604v135v113q0 22 -30 22h-35q-35 0 -35 -42q0 -33 42 -51l-242 -177v120v100v100q0 100 100 100h300q100 0 100 -100v-320l100 -150h-100v-254l100 -200h-500q-100 0 -100 99v405q0 100 100 100h200zM240 404v-154q0 -50 50 -50h50v50v154v50h-50q-50 0 -50 -50z
M239 1257q0 -42 29 -71t71 -29t71 29t29 71q0 40 -29.5 69.5t-70.5 29.5t-70.5 -29.5t-29.5 -69.5zM163 1257q0 75 51 126t125 51q76 0 127.5 -51.5t51.5 -125.5q0 -75 -51.5 -126.5t-127.5 -51.5q-74 0 -125 51.5t-51 126.5z" />
    <glyph glyph-name="ae" unicode="&#xe6;" horiz-adv-x="1104" 
d="M340 604v135v113q0 22 -30 22h-35q-35 0 -35 -42q0 -33 42 -51l-242 -177v120v100v100q0 100 100 100h300q100 0 100 -100v-320l100 -150h-100v-254l100 -200h-500q-100 0 -100 99v405q0 100 100 100h200zM240 404v-154q0 -50 50 -50h50v50v154v50h-50q-50 0 -50 -50z
M736 602h50q25 0 25 26v221q0 25 -25 25h-50q-25 0 -25 -25v-221q0 -26 25 -26zM711 502v-277q0 -25 25 -25h328v-360l-151 160h-202q-200 0 -200 200v302l-99 100h99v272q0 150 200 150h100q200 0 200 -150v-272q0 -100 -200 -100h-100z" />
    <glyph glyph-name="ccedilla" unicode="&#xe7;" horiz-adv-x="633" 
d="M240 0q-200 0 -200 200v674q0 150 200 150h100q200 0 200 -150v-273h-200v248q0 25 -25 25h-50q-25 0 -25 -25v-624q0 -25 25 -25h328v-360l-151 160h-202zM488 -428h-419l100 100h269q50 0 50 50v11q0 50 -50 50h-129q-100 0 -100 100v117h50h50v-67q0 -50 50 -50h129
q100 0 100 -100v-111q0 -100 -100 -100z" />
    <glyph glyph-name="egrave" unicode="&#xe8;" horiz-adv-x="647" 
d="M279 602h50q25 0 25 26v221q0 25 -25 25h-50q-25 0 -25 -25v-221q0 -26 25 -26zM254 502v-277q0 -25 25 -25h328v-360l-151 160h-202q-200 0 -200 200v302l-99 100h99v272q0 150 200 150h100q200 0 200 -150v-272q0 -100 -200 -100h-100zM435 1079h-69l-330 202
q-31 20 -46.5 40t-15.5 42q0 31 20.5 51t53.5 20q20 0 40.5 -12t55.5 -47z" />
    <glyph glyph-name="eacute" unicode="&#xe9;" horiz-adv-x="647" 
d="M279 602h50q25 0 25 26v221q0 25 -25 25h-50q-25 0 -25 -25v-221q0 -26 25 -26zM254 502v-277q0 -25 25 -25h328v-360l-151 160h-202q-200 0 -200 200v302l-99 100h99v272q0 150 200 150h100q200 0 200 -150v-272q0 -100 -200 -100h-100zM418 1375q35 35 55.5 47t40.5 12
q33 0 53.5 -20t20.5 -51q0 -22 -15.5 -42t-46.5 -40l-330 -203h-69z" />
    <glyph glyph-name="ecircumflex" unicode="&#xea;" horiz-adv-x="647" 
d="M279 602h50q25 0 25 26v221q0 25 -25 25h-50q-25 0 -25 -25v-221q0 -26 25 -26zM254 502v-277q0 -25 25 -25h328v-360l-151 160h-202q-200 0 -200 200v302l-99 100h99v272q0 150 200 150h100q200 0 200 -150v-272q0 -100 -200 -100h-100zM40 1079l232 355h118l232 -355
h-58l-233 216l-233 -216h-58z" />
    <glyph glyph-name="edieresis" unicode="&#xeb;" horiz-adv-x="647" 
d="M279 602h50q25 0 25 26v221q0 25 -25 25h-50q-25 0 -25 -25v-221q0 -26 25 -26zM254 502v-277q0 -25 25 -25h328v-360l-151 160h-202q-200 0 -200 200v302l-99 100h99v272q0 150 200 150h100q200 0 200 -150v-272q0 -100 -200 -100h-100zM55 1289l71 72q13 12 25 12
q11 0 27 -14l69 -73q10 -14 10 -25q0 -13 -12 -27l-69 -75q-17 -17 -25 -17q-14 0 -25 12l-76 86q-9 12 -9 23q0 13 14 26zM420 1289l71 72q13 12 25 12q11 0 27 -13l69 -74q10 -14 10 -25q0 -13 -12 -26l-69 -76q-17 -17 -25 -17q-14 0 -25 12l-76 87q-9 11 -9 22
q0 13 14 26z" />
    <glyph glyph-name="igrave" unicode="&#xec;" horiz-adv-x="280" 
d="M240 1064v-904l-200 -160v914zM294 1079h-69l-330 202q-31 20 -46.5 40t-15.5 42q0 31 20.5 51t53.5 20q20 0 40.5 -12t55.5 -47z" />
    <glyph glyph-name="iacute" unicode="&#xed;" horiz-adv-x="280" 
d="M240 1064v-904l-200 -160v914zM277 1375q35 35 55.5 47t40.5 12q33 0 53.5 -20t20.5 -51q0 -22 -15.5 -42t-46.5 -40l-330 -203h-69z" />
    <glyph glyph-name="icircumflex" unicode="&#xee;" horiz-adv-x="280" 
d="M240 1064v-904l-200 -160v914zM-151 1079l232 355h118l232 -355h-58l-233 216l-233 -216h-58z" />
    <glyph glyph-name="idieresis" unicode="&#xef;" horiz-adv-x="280" 
d="M241 1064v-904l-200 -160v914zM-136 1289l71 72q13 12 25 12q11 0 27 -14l69 -73q10 -14 10 -25q0 -13 -12 -27l-69 -75q-17 -17 -25 -17q-14 0 -25 12l-76 86q-9 12 -9 23q0 13 14 26zM229 1289l71 72q13 12 25 12q11 0 27 -13l69 -74q10 -14 10 -25q0 -13 -12 -26
l-69 -76q-17 -17 -25 -17q-14 0 -25 12l-76 87q-9 11 -9 22q0 13 14 26z" />
    <glyph glyph-name="ntilde" unicode="&#xf1;" horiz-adv-x="595" 
d="M55 874l-100 150h400q200 0 200 -150v-714l-200 -160v874h-100v-714l-200 -160v874zM542 1382q-20 -103 -68.5 -154t-126.5 -51h-4q-50 0 -113 23q-66 24 -114 24q-39 0 -60.5 -20.5t-33.5 -71.5h-54q19 106 68 158.5t129 52.5q46 -1 113 -24q64 -23 112 -23h4
q36 0 58 20t36 66h54z" />
    <glyph glyph-name="ograve" unicode="&#xf2;" horiz-adv-x="580" 
d="M265 200h50q25 0 25 25v624q0 25 -25 25h-50q-25 0 -25 -25v-624q0 -25 25 -25zM40 200v674q0 150 200 150h100q200 0 200 -150v-674q0 -200 -200 -200h-100q-200 0 -200 200zM444 1079h-69l-330 202q-31 20 -46.5 40t-15.5 42q0 31 20.5 51t53.5 20q20 0 40.5 -12
t55.5 -47z" />
    <glyph glyph-name="oacute" unicode="&#xf3;" horiz-adv-x="580" 
d="M265 200h50q25 0 25 25v624q0 25 -25 25h-50q-25 0 -25 -25v-624q0 -25 25 -25zM40 200v674q0 150 200 150h100q200 0 200 -150v-674q0 -200 -200 -200h-100q-200 0 -200 200zM427 1375q35 35 55.5 47t40.5 12q33 0 53.5 -20t20.5 -51q0 -22 -15.5 -42t-46.5 -40
l-330 -203h-69z" />
    <glyph glyph-name="ocircumflex" unicode="&#xf4;" horiz-adv-x="580" 
d="M265 200h50q25 0 25 25v624q0 25 -25 25h-50q-25 0 -25 -25v-624q0 -25 25 -25zM40 200v674q0 150 200 150h100q200 0 200 -150v-674q0 -200 -200 -200h-100q-200 0 -200 200zM-1 1079l232 355h118l232 -355h-58l-233 216l-233 -216h-58z" />
    <glyph glyph-name="otilde" unicode="&#xf5;" horiz-adv-x="580" 
d="M265 200h50q25 0 25 25v624q0 25 -25 25h-50q-25 0 -25 -25v-624q0 -25 25 -25zM40 200v674q0 150 200 150h100q200 0 200 -150v-674q0 -200 -200 -200h-100q-200 0 -200 200zM577 1382q-20 -103 -68.5 -154t-126.5 -51h-4q-50 0 -113 23q-66 24 -114 24
q-39 0 -60.5 -20.5t-33.5 -71.5h-54q19 106 68 158.5t129 52.5q46 -1 113 -24q64 -23 112 -23h4q36 0 58 20t36 66h54z" />
    <glyph glyph-name="odieresis" unicode="&#xf6;" horiz-adv-x="580" 
d="M266 200h50q25 0 25 25v624q0 25 -25 25h-50q-25 0 -25 -25v-624q0 -25 25 -25zM41 200v674q0 150 200 150h100q200 0 200 -150v-674q0 -200 -200 -200h-100q-200 0 -200 200zM14 1289l71 72q13 12 25 12q11 0 27 -14l69 -73q10 -14 10 -25q0 -13 -12 -27l-69 -75
q-17 -17 -25 -17q-14 0 -25 12l-76 86q-9 12 -9 23q0 13 14 26zM379 1289l71 72q13 12 25 12q11 0 27 -13l69 -74q10 -14 10 -25q0 -13 -12 -26l-69 -76q-17 -17 -25 -17q-14 0 -25 12l-76 87q-9 11 -9 22q0 13 14 26z" />
    <glyph glyph-name="divide" unicode="&#xf7;" 
d="M137 647l-100 140h839l1 -1l100 -139h-840zM432 243l-132 199h83l199 132v-83l132 -199h-83l-199 -132v83zM432 943l-132 199h83l199 132v-83l132 -199h-83l-199 -132v83z" />
    <glyph glyph-name="oslash" unicode="&#xf8;" horiz-adv-x="580" 
d="M265 200h50q25 0 25 25v624q0 25 -25 25h-50q-25 0 -25 -25v-624q0 -25 25 -25zM40 200v674q0 150 200 150h100q200 0 200 -150v-674q0 -200 -200 -200h-100q-200 0 -200 200zM-242 -209l940 1461h84l-938 -1461h-86z" />
    <glyph glyph-name="ugrave" unicode="&#xf9;" horiz-adv-x="580" 
d="M340 864l200 160v-1184l-200 160h-100q-200 0 -200 200v664l200 160v-799q0 -25 25 -25h50q25 0 25 25v639zM444 1199h-69l-330 202q-31 20 -46.5 40t-15.5 42q0 31 20.5 51t53.5 20q20 0 40.5 -12t55.5 -47z" />
    <glyph glyph-name="uacute" unicode="&#xfa;" horiz-adv-x="580" 
d="M340 864l200 160v-1184l-200 160h-100q-200 0 -200 200v664l200 160v-799q0 -25 25 -25h50q25 0 25 25v639zM427 1495q35 35 55.5 47t40.5 12q33 0 53.5 -20t20.5 -51q0 -22 -15.5 -42t-46.5 -40l-330 -203h-69z" />
    <glyph glyph-name="ucircumflex" unicode="&#xfb;" horiz-adv-x="580" 
d="M340 864l200 160v-1184l-200 160h-100q-200 0 -200 200v664l200 160v-799q0 -25 25 -25h50q25 0 25 25v639zM-1 1199l232 355h118l232 -355h-58l-233 216l-233 -216h-58z" />
    <glyph glyph-name="udieresis" unicode="&#xfc;" horiz-adv-x="580" 
d="M341 864l200 160v-1184l-200 160h-100q-200 0 -200 200v664l200 160v-799q0 -25 25 -25h50q25 0 25 25v639zM14 1349l71 72q13 12 25 12q11 0 27 -14l69 -73q10 -14 10 -25q0 -13 -12 -27l-69 -75q-17 -17 -25 -17q-14 0 -25 12l-76 86q-9 12 -9 23q0 13 14 26zM379 1349
l71 72q13 12 25 12q11 0 27 -13l69 -74q10 -14 10 -25q0 -13 -12 -26l-69 -76q-17 -17 -25 -17q-14 0 -25 12l-76 87q-9 11 -9 22q0 13 14 26z" />
    <glyph glyph-name="yacute" unicode="&#xfd;" horiz-adv-x="895" 
d="M305 516l-274 508l130 160l244 -477l242 478l128 -161l-540 -1024h-280l152 226v-75h7zM542 1375q35 35 55.5 47t40.5 12q33 0 53.5 -20t20.5 -51q0 -22 -15.5 -42t-46.5 -40l-330 -203h-69z" />
    <glyph glyph-name="thorn" unicode="&#xfe;" horiz-adv-x="595" 
d="M355 1144q200 0 200 -150v-614q0 -150 -200 -150h-100v-400l-200 -140v540h-100l100 150v614l-100 150h400zM255 380h55q45 0 45 46v524q0 44 -45 44h-55v-614zM55 4v1434l200 140v-1424h80v76l150 -226h-430z" />
    <glyph glyph-name="ydieresis" unicode="&#xff;" horiz-adv-x="895" 
d="M305 516l-274 508l130 160l244 -477l242 478l128 -161l-540 -1024h-280l152 226v-75h7zM129 1289l71 72q13 12 25 12q11 0 27 -14l69 -73q10 -14 10 -25q0 -13 -12 -27l-69 -75q-17 -17 -25 -17q-14 0 -25 12l-76 86q-9 12 -9 23q0 13 14 26zM494 1289l71 72q13 12 25 12
q11 0 27 -13l69 -74q10 -14 10 -25q0 -13 -12 -26l-69 -76q-17 -17 -25 -17q-14 0 -25 12l-76 87q-9 11 -9 22q0 13 14 26z" />
    <glyph glyph-name="dotlessi" unicode="&#x131;" horiz-adv-x="280" 
d="M240 1064v-904l-200 -160v914z" />
    <glyph glyph-name="circumflex" unicode="&#x2c6;" horiz-adv-x="1024" 
d="M221 1079l232 355h118l232 -355h-58l-233 216l-233 -216h-58z" />
    <glyph glyph-name="dotaccent" unicode="&#x2d9;" horiz-adv-x="1024" 
d="M422 1289l69 72q6 6 13 9t14 3q6 0 12.5 -3t12.5 -9l71 -76q5 -4 7 -10t2 -14q-1 -9 -3 -15t-8 -12l-71 -76q-12 -11 -16 -13.5t-7 -2.5q-10 0 -16.5 2.5t-10.5 8.5l-75 87q-4 4 -6 9.5t-2 13.5q0 6 3 12.5t11 13.5z" />
    <glyph glyph-name="ring" unicode="&#x2da;" horiz-adv-x="1024" 
d="M411 1257q0 -42 29 -71t71 -29t71 29t29 71q0 40 -29.5 69.5t-70.5 29.5t-70.5 -29.5t-29.5 -69.5zM335 1257q0 75 51 126t125 51q76 0 127.5 -51.5t51.5 -125.5q0 -75 -51.5 -126.5t-127.5 -51.5q-74 0 -125 51.5t-51 126.5z" />
    <glyph glyph-name="ogonek" unicode="&#x2db;" horiz-adv-x="1024" 
d="M640 0q-71 -62 -110.5 -119.5t-39.5 -112.5q0 -47 27 -75t73 -28q40 0 69.5 15.5t49.5 48.5l28 -16q-36 -63 -90.5 -97t-119.5 -34q-70 0 -114 35.5t-44 90.5q0 76 60.5 156.5t161.5 135.5h49z" />
    <glyph glyph-name="tilde" unicode="&#x2dc;" horiz-adv-x="1024" 
d="M808 1382q-20 -103 -68.5 -154t-126.5 -51h-4q-50 0 -113 23q-66 24 -114 24q-39 0 -60.5 -20.5t-33.5 -71.5h-54q19 106 68 158.5t129 52.5q46 -1 113 -24q64 -23 112 -23h4q36 0 58 20t36 66h54z" />
    <glyph glyph-name="hungarumlaut" unicode="&#x2dd;" horiz-adv-x="1024" 
d="M703 1534v-474h-162zM393 1534v-474h-162z" />
    <glyph glyph-name="endash" unicode="&#x2013;" horiz-adv-x="1108" 
d="M56 419v120h996v-120h-996z" />
    <glyph glyph-name="emdash" unicode="&#x2014;" horiz-adv-x="2048" 
d="M0 419v120h2048v-120h-2048z" />
    <glyph glyph-name="quoteleft" unicode="&#x2018;" horiz-adv-x="1026" 
d="M1250 856q266 -182 779 31q373 206 756 404q482 300 771 243q159 -25 171 -178t-134 -253q66 266 -106 306q-242 36 -619 -191q-421 -219 -808 -452q-555 -241 -952 -20q-180 123 -334 269q-71 45 -150 13q-49 -15 -41 -91q-30 33 -33 93h-149q-107 0 -232 -131l71 134
q49 83 11 78l-71 -53l38 58l8 45l52 53q8 53 -33 25l-119 -83l27 45q-47 -15 -150 -75q207 226 457 319q303 134 640 124q79 -5 131 -38q16 -20 6 -43q-11 20 -28 25l-103 -7q-66 -8 -64.5 -52t50.5 -79l68 -45q-11 -91 -70 -86q16 25 13 49t-30 24t-76 -73l-8 -136
q68 -118 261 -252zM787 1287q-38 -242 96 -325l-39 36q-76 67 -59 241q19 221 111 282q-82 -40 -109 -234zM910 1342q65 3 101 -15q-29 32 -101 15zM942 1377q6 26 -37.5 26t-73.5 -48q87 60 111 22zM850 1289q63 3 125 5q-68 18 -125 -5zM831 1216q43 28 131 31
q-99 15 -131 -31zM817 1141q68 58 131 50q-76 15 -131 -50zM847 1065q27 61 60 61t35 25q-8 -15 -46 -22.5t-49 -63.5zM893 1023q20 58 55 73q-49 5 -55 -73zM929 990q8 53 41 78q-47 0 -41 -78zM964 965q8 38 30 58q-32 2 -30 -58zM904 1481q104 -31 134 -99
q-36 91 -134 99zM629 1475q-384 -161 -471 -266l44 43q158 110 433 223q239 68 528 41q-297 32 -534 -41zM455.5 1285.5q-152.5 -69.5 -240.5 -174.5l39 40q87 86 217.5 142.5t160.5 51.5q-24 10 -176.5 -59.5zM488 1184.5q-105 -94.5 -167 -168.5l75 76
q104 106 162.5 152.5t83.5 49.5q-49 -15 -154 -109.5zM595.5 1185q-24.5 -61 -45.5 -157l17 62q24 86 45 127t40 50q-32 -21 -56.5 -82z" />
    <glyph glyph-name="quoteright" unicode="&#x2019;" horiz-adv-x="1134" 
d="M142 1108l-8 136q-49 73 -76 73t-30 -24t13 -49q-59 -5 -70 86l68 45q49 35 50.5 79t-64.5 52l-103 7q-17 -5 -28 -25q-10 23 6 43q52 33 131 38q337 10 640 -124q250 -93 457 -319q-103 60 -150 75l27 -45l-119 83q-41 28 -33 -25l52 -53l8 -45l38 -58l-71 53
q-38 5 11 -78l71 -134q-125 131 -232 131h-149q-3 -60 -33 -93q8 76 -41 91q-79 32 -150 -13q-154 -146 -334 -269q-397 -221 -952 20q-387 233 -808 452q-377 227 -619 191q-172 -40 -106 -306q-146 100 -134 253t171 178q289 57 771 -243q383 -198 756 -404
q513 -213 779 -31q193 134 261 252zM235 1521q92 -61 111 -282q17 -174 -59 -241l-39 -36q134 83 96 325q-27 194 -109 234zM120 1327q36 18 101 15q-72 17 -101 -15zM300 1355q-30 48 -73.5 48t-37.5 -26q24 38 111 -22zM156 1294q62 -2 125 -5q-57 23 -125 5zM169 1247
q88 -3 131 -31q-32 46 -131 31zM183 1191q63 8 131 -50q-55 65 -131 50zM235 1128.5q-38 7.5 -46 22.5q2 -25 35 -25t60 -61q-11 56 -49 63.5zM183 1096q35 -15 55 -73q-6 78 -55 73zM161 1068q33 -25 41 -78q6 78 -41 78zM137 1023q22 -20 30 -58q2 60 -30 58zM93 1382
q30 68 134 99q-98 -8 -134 -99zM-32 1516q289 27 528 -41q275 -113 433 -223l44 -43q-87 105 -471 266q-237 73 -534 41zM499 1345q30 5 160.5 -51.5t217.5 -142.5l39 -40q-88 105 -240.5 174.5t-176.5 59.5zM489 1294q25 -3 83.5 -49.5t162.5 -152.5l75 -76
q-62 74 -167 168.5t-154 109.5zM479 1267q19 -9 40 -50t45 -127l17 -62q-21 96 -45.5 157t-56.5 82z" />
    <glyph glyph-name="quotesinglbase" unicode="&#x201a;" horiz-adv-x="557" 
d="M92 -332l48 59q94 56 108 203q1 49 -71 67l-132 199h83l199 132v-83q118 -162 66 -339.5t-301 -237.5z" />
    <glyph glyph-name="quotedblleft" unicode="&#x201c;" horiz-adv-x="910" 
d="M458 1591l-48 -59q-94 -56 -108 -203q-1 -49 71 -67l132 -199h-83l-199 -132v83q-118 162 -66 339.5t301 237.5zM808 1591l-48 -59q-94 -56 -108 -203q-1 -49 71 -67l132 -199h-83l-199 -132v83q-118 162 -66 339.5t301 237.5z" />
    <glyph glyph-name="quotedblright" unicode="&#x201d;" horiz-adv-x="910" 
d="M78 981l48 59q94 56 108 203q1 49 -71 67l-132 199h83l199 132v-83q118 -162 66 -339.5t-301 -237.5zM438 981l48 59q94 56 108 203q1 49 -71 67l-132 199h83l199 132v-83q118 -162 66 -339.5t-301 -237.5z" />
    <glyph glyph-name="quotedblbase" unicode="&#x201e;" horiz-adv-x="910" 
d="M78 -319l48 59q94 56 108 203q1 49 -71 67l-132 199h83l199 132v-83q118 -162 66 -339.5t-301 -237.5zM438 -319l48 59q94 56 108 203q1 49 -71 67l-132 199h83l199 132v-83q118 -162 66 -339.5t-301 -237.5z" />
    <glyph glyph-name="dagger" unicode="&#x2020;" 
d="M486 1022q-8 97 -54 178q-57 101 -57 129q0 49 36 78.5t96 29.5q57 0 94.5 -27.5t37.5 -71.5q0 -32 -55 -137q-46 -85 -55 -179q96 8 177 54q101 57 129 57q49 0 79 -36t30 -96q0 -57 -27.5 -94.5t-72.5 -37.5q-32 0 -136 55q-85 46 -179 57q8 -176 110 -277
q-106 -460 -112 -974h-38q-6 514 -114 974q102 101 111 277q-96 -10 -178 -55q-101 -57 -129 -57q-49 0 -78.5 36t-29.5 96q0 57 27.5 94.5t71.5 37.5q32 0 137 -56q85 -46 179 -55z" />
    <glyph glyph-name="daggerdbl" unicode="&#x2021;" 
d="M528 186q94 11 179 57q104 55 136 55q45 0 72.5 -37.5t27.5 -94.5q0 -60 -30 -96t-79 -36q-28 0 -129 57q-81 46 -177 54q9 -94 55 -179q55 -105 55 -137q0 -44 -37.5 -71.5t-94.5 -27.5q-60 0 -96 29.5t-36 78.5q0 28 57 129q46 81 54 178q-94 -9 -179 -55
q-105 -56 -137 -56q-44 0 -71.5 37.5t-27.5 94.5q0 60 29.5 96t78.5 36q28 0 129 -57q82 -45 178 -55q-9 226 -111 398q102 171 111 397q-96 -10 -178 -55q-101 -57 -129 -57q-49 0 -78.5 36t-29.5 96q0 57 27.5 94.5t71.5 37.5q32 0 137 -56q85 -46 179 -55q-8 97 -54 178
q-57 101 -57 129q0 49 36 78.5t96 29.5q57 0 94.5 -27.5t37.5 -71.5q0 -32 -55 -137q-46 -85 -55 -179q96 8 177 54q101 57 129 57q49 0 79 -36t30 -96q0 -57 -27.5 -94.5t-72.5 -37.5q-32 0 -136 55q-85 46 -179 57q8 -226 110 -397q-102 -172 -110 -398z" />
    <glyph glyph-name="bullet" unicode="&#x2022;" horiz-adv-x="1024" 
d="M216 718q0 123 87 209t210 86q122 0 208.5 -86.5t86.5 -208.5t-87.5 -209.5t-209.5 -87.5q-123 0 -209 87t-86 210z" />
    <glyph glyph-name="ellipsis" unicode="&#x2026;" horiz-adv-x="2048" 
d="M177 -3l-132 199h83l199 132v-83l132 -199h-83l-199 -132v83zM860 -3l-132 199h83l199 132v-83l132 -199h-83l-199 -132v83zM1543 -3l-132 199h83l199 132v-83l132 -199h-83l-199 -132v83z" />
    <glyph glyph-name="guilsinglleft" unicode="&#x2039;" horiz-adv-x="631" 
d="M174 479l342 303h14v-37l-205 -266l205 -266v-37h-14z" />
    <glyph glyph-name="guilsinglright" unicode="&#x203a;" horiz-adv-x="631" 
d="M115 176h-14v37l205 266l-205 266v37h14l342 -303z" />
    <glyph glyph-name="fraction" unicode="&#x2044;" horiz-adv-x="342" 
d="M-342 -29l940 1461h84l-938 -1461h-86z" />
    <glyph glyph-name="fraction" unicode="&#x2215;" horiz-adv-x="342" 
d="M-342 -29l940 1461h84l-938 -1461h-86z" />
    <glyph glyph-name="franc" unicode="&#x20a3;" horiz-adv-x="680" 
d="M305 924v-1254l-200 170v1104l-112 80h112v173q-114 -3 -211 -10q-447 -35 -774 -165q336 270 719 305q115 10 266 17v190l200 -140v-43q298 7 704 3l163 -189q-504 34 -867 35v-176h201v-100h-201zM-296 773h1024v-60h-1024v60z" />
    <glyph glyph-name="peseta" unicode="&#x20a7;" horiz-adv-x="2198" 
d="M405.511 1284v-540h117.004q63.001 0 63.001 70v400q0 70 -63.001 70h-117.004zM585.516 644h-180.005v-974l-180.005 170v1444h-135.003v-76l-135.004 226h630.017q180.005 0 180.005 -150v-540q0 -100 -180.005 -100zM968 1334v100l200 140v-240h370l-100 -150h-270
v-1184l-200 -160v1344h-380l100 150h280zM1733 200q100 0 100 100v149q0 50 -100 50h-100q-200 0 -200 103v272q0 150 200 150h560l-160 -149l-300 -1q-100 0 -100 -100v-126q0 -46 90 -46h111q199 0 199 -103v-230v-69q0 -200 -199 -200h-561l160 200h300z" />
    <glyph glyph-name="Euro" unicode="&#x20ac;" horiz-adv-x="680" 
d="M317.994 -200v0q-169.995 0 -169.995 200v1284q0 150 169.995 150h340.84q169.146 0 169.146 -150v-385l-169.995 -200v485q0 100 -84.998 100h-169.994q-84.998 0 -84.998 -100v-1084q0 -100 84.998 -100h254.992v264l301.741 -464h-641.731zM-39 693h1024v-60h-1024v60
zM-39 813h1024v-60h-1024v60z" />
    <glyph glyph-name="afii61352" unicode="&#x2116;" horiz-adv-x="1824" 
d="M386 1434l607 -1164v1164l200 -170v-1698l-200 274v1l-1 -1l-606 1162v-1332l-200 170v1444h-80v-76l-150 226h430zM1511.89 939.995h32.999q16.499 0 16.499 14.999v374.385q0 15 -16.499 15h-32.999q-16.499 0 -16.499 -15v-374.385q0 -14.999 16.499 -14.999z
M1363.4 939.995v404.384q0 89.9961 131.995 89.9961h65.9971q131.995 0 131.995 -89.9961v-404.384q0 -119.995 -131.995 -119.995h-65.9971q-131.995 0 -131.995 119.995zM1272 760h512v-60h-512v60z" />
    <glyph glyph-name="trademark" unicode="&#x2122;" horiz-adv-x="1841" 
d="M483.251 1357.63v76.0049l90.0029 -56.0039v-17.2012q134.104 2.80078 316.809 1.2002l73.3516 -75.6045q-226.806 13.6006 -390.16 14.001v-612.037l-90.0029 68.0039v542.833q-51.3008 -1.2002 -94.9521 -4q-201.155 -14.001 -348.31 -66.0039
q151.204 108.007 323.559 122.007q51.752 4.00098 119.703 6.80078zM1801.67 1433.63l-68.4014 -90.4053v30.002h-2.25v-645.239l-90.0029 68.0039v483.63l-241.656 -413.226v0.400391l-0.450195 -0.400391l-241.656 413.226v-551.634l-90.0029 68.0039v577.635h-36.001
v-30.4014l-67.502 90.4053h204.306l230.856 -394.023l230.856 394.023h171.904z" />
    <glyph glyph-name="minus" unicode="&#x2212;" 
d="M137 647l-100 140h839l1 -1l100 -139h-840z" />
    <glyph glyph-name="approxequal" unicode="&#x2248;" 
d="M923 1053v-156q-63 -72 -122 -97.5t-116 -25.5q-60 0 -177.5 48.5t-176.5 48.5q-51 0 -107.5 -28t-129.5 -112v156q64 73 123 99t114 26q64 0 181.5 -49.5t172.5 -49.5q52 0 108.5 28t129.5 112zM923 705v-156q-63 -72 -122 -97.5t-116 -25.5q-60 0 -177.5 48.5
t-176.5 48.5q-51 0 -107.5 -28t-129.5 -112v156q64 73 123 99t114 26q64 0 181.5 -49.5t172.5 -49.5q52 0 108.5 28t129.5 112z" />
    <glyph glyph-name="lessequal" unicode="&#x2264;" 
d="M927 1074l-625 -359l625 -355v-167l-840 481v83l840 484v-167zM137 0l-100 140h839l1 -1l100 -139h-840z" />
    <glyph glyph-name="greaterequal" unicode="&#x2265;" 
d="M87 1241l840 -484v-83l-840 -481v167l625 355l-625 359v167zM137 0l-100 140h839l1 -1l100 -139h-840z" />
    <glyph glyph-name="uniF001" unicode="&#xf001;" horiz-adv-x="1073" 
 />
    <glyph glyph-name="uniF001" unicode="&#xfb01;" horiz-adv-x="1073" 
 />
  </font>
</defs>
</svg>
